<?xml version="1.0" encoding="iso-8859-1"?>
<!-- Generator: Adobe Illustrator 17.1.0, SVG Export Plug-In . SVG Version: 6.00 Build 0)  -->
<!DOCTYPE svg PUBLIC "-//W3C//DTD SVG 1.1//EN" "http://www.w3.org/Graphics/SVG/1.1/DTD/svg11.dtd">
<svg version="1.1" id="Capa_1" xmlns="http://www.w3.org/2000/svg" xmlns:xlink="http://www.w3.org/1999/xlink" x="0px" y="0px"
	 viewBox="0 0 218.902 218.902" style="enable-background:new 0 0 218.902 218.902;" xml:space="preserve">
<path d="M190.484,169.034c-6.339,3.142-12.886,4.734-19.457,4.734c-0.001,0-0.001,0-0.003,0c-12.315,0-21.985-5.577-27.548-9.804
	c-3.248,2.16-8.017,5.898-11.307,10.979c-5.546,8.564-6.813,21.076-6.826,21.201c-0.001,0.009-0.003,0.018-0.004,0.027
	c-0.018,0.184-0.048,0.364-0.079,0.544c-0.009,0.054-0.015,0.109-0.026,0.163c-0.035,0.179-0.081,0.354-0.129,0.529
	c-0.015,0.054-0.027,0.11-0.043,0.164c-0.05,0.167-0.109,0.33-0.17,0.493c-0.022,0.058-0.041,0.117-0.064,0.174
	c-0.064,0.159-0.137,0.313-0.211,0.467c-0.027,0.055-0.052,0.111-0.08,0.166c-0.081,0.157-0.17,0.309-0.261,0.459
	c-0.027,0.044-0.053,0.089-0.081,0.133c-0.101,0.158-0.209,0.311-0.321,0.461c-0.022,0.03-0.044,0.06-0.067,0.089
	c-0.123,0.159-0.252,0.312-0.387,0.461c-0.015,0.016-0.029,0.032-0.043,0.048c-0.144,0.156-0.296,0.306-0.453,0.45
	c-0.006,0.005-0.011,0.011-0.017,0.016c-0.978,0.888-2.198,1.535-3.589,1.808c-0.486,0.095-0.971,0.141-1.449,0.141
	c-0.777,0-1.534-0.128-2.252-0.355c-0.014-0.005-0.028-0.009-0.042-0.014c-0.203-0.065-0.402-0.14-0.598-0.222
	c-0.02-0.008-0.039-0.016-0.059-0.024c-0.194-0.083-0.384-0.175-0.57-0.274c-0.016-0.008-0.032-0.016-0.047-0.024
	c-0.996-0.542-1.866-1.304-2.532-2.239c-0.017-0.023-0.032-0.048-0.048-0.072c-0.109-0.156-0.213-0.316-0.31-0.481
	c-0.031-0.053-0.059-0.108-0.089-0.162c-0.076-0.138-0.151-0.278-0.219-0.421c-0.037-0.077-0.069-0.156-0.103-0.235
	c-0.054-0.124-0.106-0.248-0.153-0.376c-0.036-0.097-0.068-0.196-0.1-0.295c-0.037-0.115-0.072-0.23-0.104-0.347
	c-0.029-0.108-0.055-0.218-0.08-0.328c-0.014-0.063-0.033-0.125-0.046-0.188c-0.156-0.798-1.56-8.043-3.18-18.604
	c-1.872-7.076-4.854-15.248-9.595-22.444c-4.238-6.435-8.599-10.862-11.278-13.281c-5.493,3.033-16.507,7.983-29.902,7.983
	c-0.001,0,0,0,0,0c-12.506-0.001-24.093-4.214-34.439-12.522C-11.015,111.396,2.729,55.302,3.33,52.927
	c0.672-2.656,2.74-4.734,5.393-5.42c2.654-0.689,5.468,0.129,7.344,2.125c3.113,3.299,12.978,12.324,21.067,14.38
	c1.981,0.503,4.478,0.993,7.122,1.513c13.161,2.586,33.05,6.494,43.928,22.482c9.351,13.744,7.965,32.056,6.33,41.675
	c1.846,1.528,4.814,4.196,8.205,8.029c-0.712-10.691-0.926-21.405-0.189-30.774c2.65-33.664,7.729-67.964,37.5-85.098
	c13.586-7.819,27.829-7.831,39.075-0.033c10.372,7.19,16.307,20.137,14.431,31.482c-1.746,10.564-8.979,19.296-18.875,22.786
	c-9.006,3.178-18.449,1.442-25.259-4.638c-3.09-2.759-3.358-7.5-0.6-10.59s7.5-3.358,10.59-0.6c3.846,3.434,8.47,2.319,10.279,1.682
	c3.714-1.31,8.045-4.91,9.066-11.086c0.933-5.647-2.583-12.831-8.178-16.71c-4.515-3.129-12.178-5.546-23.047,0.706
	c-21.253,12.232-27.104,36.13-30.028,73.275c-1.338,16.995,0.793,39.438,3.157,57.12c4.939-6.94,11.413-11.788,15.594-14.454
	c0.174-7.248,1.834-22.313,11.96-31.877c9.327-8.809,21.851-9.938,31.72-9.938c1.83,0,3.594,0.039,5.252,0.077
	c1.964,0.043,3.78,0.091,5.334,0.039c5.115-0.165,12.933-4.245,16.661-6.778c2.261-1.537,5.187-1.726,7.625-0.483
	c2.438,1.242,4.01,3.71,4.096,6.444C218.944,110.141,219.992,154.413,190.484,169.034z"/>
<g>
</g>
<g>
</g>
<g>
</g>
<g>
</g>
<g>
</g>
<g>
</g>
<g>
</g>
<g>
</g>
<g>
</g>
<g>
</g>
<g>
</g>
<g>
</g>
<g>
</g>
<g>
</g>
<g>
</g>
</svg>
